<svg id="Capa_1" data-name="Capa 1" xmlns="http://www.w3.org/2000/svg" viewBox="0 0 1658.26 487.91"><defs><style>.cls-1{fill:#17202a;}.cls-2{fill:#fff;}</style></defs><title>logo</title><rect class="cls-1" x="155.4" y="165.97" width="189" height="189"/><path class="cls-2" d="M255,303H220.74a2.66,2.66,0,0,1-2.06-.8,2.85,2.85,0,0,1-.74-2h0V220.86a3,3,0,0,1,.74-2.12,2.65,2.65,0,0,1,2.06-.79H254q9.12,0,14.89,3a19.38,19.38,0,0,1,8.5,8.08,23.77,23.77,0,0,1,2.74,11.42h0a20.62,20.62,0,0,1-1.64,8.58,18.23,18.23,0,0,1-4.08,5.82,23.1,23.1,0,0,1-4.73,3.46h0a22.76,22.76,0,0,1,8.44,7.54,21.27,21.27,0,0,1,3.71,12.64h0a25.25,25.25,0,0,1-3,12.27,22.25,22.25,0,0,1-9.06,8.92Q263.76,303,255,303Zm-25.15-39.37v29.53h23.58q7.77,0,12-4.25a14.23,14.23,0,0,0,4.25-10.45h0a14.29,14.29,0,0,0-4.25-10.63q-4.26-4.2-12-4.2H229.85Zm0-35.85v26.13h22.36q7.78,0,11.78-3.58a12.47,12.47,0,0,0,4-9.79h0q0-6.19-4-9.47t-11.78-3.29H229.85Z"/><path class="cls-1" d="M427.28,301.83H394.34a2.56,2.56,0,0,1-2-.77,2.72,2.72,0,0,1-.71-1.93h0V222.86a2.89,2.89,0,0,1,.71-2,2.56,2.56,0,0,1,2-.77h32q8.76,0,14.31,2.86a18.72,18.72,0,0,1,8.17,7.77,22.85,22.85,0,0,1,2.63,11h0a19.76,19.76,0,0,1-1.57,8.24,17.52,17.52,0,0,1-3.93,5.6,22.37,22.37,0,0,1-4.54,3.32h0a21.87,21.87,0,0,1,8.11,7.25,20.44,20.44,0,0,1,3.57,12.16h0A24.24,24.24,0,0,1,450.19,290a21.58,21.58,0,0,1-8.71,8.59,28.89,28.89,0,0,1-14.2,3.21ZM403.11,264v28.39h22.66q7.49,0,11.57-4.09a13.64,13.64,0,0,0,4.09-10h0A13.7,13.7,0,0,0,437.34,268q-4.09-4-11.57-4H403.11Zm0-34.47v25.12H424.6q7.48,0,11.33-3.44a12,12,0,0,0,3.86-9.41h0q0-6-3.86-9.1t-11.33-3.17H403.11Zm73.36,72.32h-5.61a2.62,2.62,0,0,1-2.69-2.7h0V243.78a2.6,2.6,0,0,1,2.69-2.7h5.61a2.6,2.6,0,0,1,2.68,2.7h0v55.35a2.62,2.62,0,0,1-2.68,2.7Zm.81-72.07h-7.36A2.58,2.58,0,0,1,468,229a2.63,2.63,0,0,1-.76-1.93h0v-6.31a2.82,2.82,0,0,1,.76-2,2.47,2.47,0,0,1,1.92-.82h7.36a2.66,2.66,0,0,1,2,.82,2.64,2.64,0,0,1,.83,2h0v6.31a2.47,2.47,0,0,1-.83,1.93,2.78,2.78,0,0,1-2,.77ZM520.73,303h0q-12.14,0-19.27-7.42t-7.82-20.26h0c-.08-1-.11-2.33-.11-3.93s0-2.89.11-3.91h0a34.14,34.14,0,0,1,3.86-14.54,24.08,24.08,0,0,1,9.28-9.64,27.33,27.33,0,0,1,13.84-3.39h0q8.88,0,14.9,3.74a23.79,23.79,0,0,1,9.16,10.64,38.24,38.24,0,0,1,3.17,16.11h0v2a2.56,2.56,0,0,1-.77,2,2.75,2.75,0,0,1-1.93.69H504.74v1.06h0a24.12,24.12,0,0,0,2.11,8.94,16.47,16.47,0,0,0,5.42,6.71,13.93,13.93,0,0,0,8.35,2.57h0a17,17,0,0,0,7-1.28,18.14,18.14,0,0,0,4.56-2.86,14.41,14.41,0,0,0,2.34-2.51h0a6.19,6.19,0,0,1,1.63-1.71,4.54,4.54,0,0,1,1.87-.29h5.73a2.67,2.67,0,0,1,1.8.65,2,2,0,0,1,.65,1.82h0a9,9,0,0,1-1.87,4.25,23,23,0,0,1-5,5,26.7,26.7,0,0,1-8,4A33.72,33.72,0,0,1,520.73,303Zm-16-36.33V267h32v-.34a21.61,21.61,0,0,0-1.93-9.35,15.69,15.69,0,0,0-5.55-6.49,15.36,15.36,0,0,0-8.65-2.38h0a15.08,15.08,0,0,0-8.58,2.38,15.37,15.37,0,0,0-5.44,6.49,22.36,22.36,0,0,0-1.86,9.35Zm65.64,35.16h-5.84a2.54,2.54,0,0,1-1.91-.77,2.6,2.6,0,0,1-.77-1.93h0V243.78a2.64,2.64,0,0,1,.77-1.94,2.57,2.57,0,0,1,1.91-.76H570a2.59,2.59,0,0,1,2.68,2.7h0v5.12a24.12,24.12,0,0,1,7.66-6.47q4.61-2.52,11.86-2.52h0a23.81,23.81,0,0,1,12.9,3.33,21.14,21.14,0,0,1,8.06,9.23,32.26,32.26,0,0,1,2.74,13.73h0v32.93a2.59,2.59,0,0,1-2.68,2.7h-5.84a2.63,2.63,0,0,1-1.93-.77,2.59,2.59,0,0,1-.76-1.93h0V266.78q0-8.17-4-12.78t-11.69-4.63h0q-7.23,0-11.61,4.63t-4.38,12.78h0v32.35a2.63,2.63,0,0,1-2.7,2.7ZM649.59,303h0A23.92,23.92,0,0,1,639,300.66a20.58,20.58,0,0,1-7.7-6.31,14.79,14.79,0,0,1-2.92-9h0a15.12,15.12,0,0,1,6.54-12.85q6.54-4.78,17-6.31h0l17.41-2.45v-3.39q0-5.62-3.21-8.76c-2.15-2.1-5.63-3.15-10.47-3.15h0a15.38,15.38,0,0,0-8.4,2.09,11.21,11.21,0,0,0-4.56,5.37h0a2.49,2.49,0,0,1-2.45,1.75H635a2.44,2.44,0,0,1-1.93-.74,2.78,2.78,0,0,1-.63-1.82h0a9.82,9.82,0,0,1,1.33-4.32,17.65,17.65,0,0,1,4.15-5,24.29,24.29,0,0,1,7.19-4.15,29.93,29.93,0,0,1,10.69-1.69h0a33.52,33.52,0,0,1,11.8,1.82,18,18,0,0,1,11.5,11.73,25.72,25.72,0,0,1,1.23,7.84h0v37.83a2.62,2.62,0,0,1-2.69,2.7h-5.37a2.61,2.61,0,0,1-2-.77,2.76,2.76,0,0,1-.7-1.93h0v-5a20.84,20.84,0,0,1-4.08,4.14,21.75,21.75,0,0,1-6.43,3.39A28.79,28.79,0,0,1,649.59,303Zm2.45-8.77h0a18.9,18.9,0,0,0,8.76-2,14.45,14.45,0,0,0,6.25-6.36A23.18,23.18,0,0,0,669.34,275h0v-3.28l-13.55,2q-8.31,1.17-12.51,3.91t-4.2,6.94h0A7.84,7.84,0,0,0,641,290a11.65,11.65,0,0,0,4.9,3.21A18.33,18.33,0,0,0,652,294.23Zm53.4,7.6h-5.5a2.6,2.6,0,0,1-2.68-2.7h0V221.58a2.64,2.64,0,0,1,.75-1.93,2.61,2.61,0,0,1,1.93-.76h5.5a2.56,2.56,0,0,1,2,.76,2.77,2.77,0,0,1,.69,1.93h0v77.55a2.75,2.75,0,0,1-.69,1.93,2.56,2.56,0,0,1-2,.77Zm70.9,1.17h0a25.1,25.1,0,0,1-11.1-2.28,21.23,21.23,0,0,1-7.66-6.19,27.32,27.32,0,0,1-4.43-8.94,45,45,0,0,1-1.7-10.63h0c-.07-1.24-.11-2.41-.11-3.51s0-2.26.11-3.5h0a44.65,44.65,0,0,1,1.7-10.51,27.77,27.77,0,0,1,4.43-9,20.89,20.89,0,0,1,7.66-6.26,25.1,25.1,0,0,1,11.1-2.28h0a24,24,0,0,1,11.45,2.45,24.28,24.28,0,0,1,7.47,6.09h0V221.58a2.6,2.6,0,0,1,2.69-2.69h5.62a2.56,2.56,0,0,1,1.91.76,2.61,2.61,0,0,1,.76,1.93h0v77.55a2.62,2.62,0,0,1-2.67,2.7h-5.26a2.58,2.58,0,0,1-2-.77,2.76,2.76,0,0,1-.7-1.93h0v-4.9a23.67,23.67,0,0,1-7.59,6.25A24.39,24.39,0,0,1,776.34,303Zm2.45-9.46h0q5.84,0,9.35-2.7a16.53,16.53,0,0,0,5.25-6.83,23.25,23.25,0,0,0,1.87-8.47h0c.08-1.24.13-2.74.13-4.49s0-3.25-.13-4.5h0a20.9,20.9,0,0,0-1.92-8.06A16.21,16.21,0,0,0,788,252a15.24,15.24,0,0,0-9.17-2.58h0q-6,0-9.46,2.63a14.49,14.49,0,0,0-5,6.9,32.23,32.23,0,0,0-1.75,9.16h0c-.08,2.26-.08,4.53,0,6.79h0A32.23,32.23,0,0,0,764.3,284a14.49,14.49,0,0,0,5,6.9Q772.84,293.54,778.79,293.54ZM848,303h0q-12.16,0-19.28-7.42t-7.84-20.26h0c-.07-1-.11-2.33-.11-3.93s0-2.89.11-3.91h0a34.29,34.29,0,0,1,3.87-14.54A24.21,24.21,0,0,1,834,243.3a27.3,27.3,0,0,1,13.84-3.39h0q8.88,0,14.89,3.74a23.89,23.89,0,0,1,9.18,10.64,38.4,38.4,0,0,1,3.15,16.11h0v2a2.56,2.56,0,0,1-.76,2,2.77,2.77,0,0,1-1.93.69H831.94v1.06h0a24.72,24.72,0,0,0,2.11,8.94,16.51,16.51,0,0,0,5.44,6.71,13.88,13.88,0,0,0,8.34,2.57h0a16.92,16.92,0,0,0,7-1.28,17.89,17.89,0,0,0,4.55-2.86,14.41,14.41,0,0,0,2.34-2.51h0a6,6,0,0,1,1.64-1.71,4.51,4.51,0,0,1,1.87-.29H871a2.72,2.72,0,0,1,1.82.65,2,2,0,0,1,.63,1.82h0a8.9,8.9,0,0,1-1.86,4.25,23.05,23.05,0,0,1-5,5,26.7,26.7,0,0,1-8,4A33.62,33.62,0,0,1,848,303Zm-16-36.33V267h32v-.34a21.61,21.61,0,0,0-1.93-9.35,15.54,15.54,0,0,0-5.55-6.49,15.33,15.33,0,0,0-8.64-2.38h0a15.09,15.09,0,0,0-8.59,2.38,15.42,15.42,0,0,0-5.43,6.49,22.2,22.2,0,0,0-1.87,9.35Zm87.73,35.16h-5.95a2.29,2.29,0,0,1-1.64-.7,2.23,2.23,0,0,1-.7-1.64h0a8.63,8.63,0,0,1,.11-1.28h0l29-75.59a4.75,4.75,0,0,1,1.28-1.87,3.75,3.75,0,0,1,2.45-.7h7.95a3.71,3.71,0,0,1,2.45.7,4.55,4.55,0,0,1,1.28,1.87h0l28.87,75.59a4.15,4.15,0,0,1,.22,1.28h0a2.37,2.37,0,0,1-2.33,2.34h-6a2.68,2.68,0,0,1-2-.7,4.32,4.32,0,0,1-.88-1.28h0l-6.42-16.6H929l-6.42,16.6a2.75,2.75,0,0,1-.81,1.28,2.9,2.9,0,0,1-2.11.7Zm28.51-70.09-15.77,41.47H964Zm56.18,70.09h-5.71a2.62,2.62,0,0,1-2.69-2.7h0V243.89a2.84,2.84,0,0,1,.76-2,2.54,2.54,0,0,1,1.93-.81H1004a2.69,2.69,0,0,1,2,.81,2.73,2.73,0,0,1,.83,2h0V249a14.91,14.91,0,0,1,6.42-6,22.66,22.66,0,0,1,9.93-2h4.55a2.6,2.6,0,0,1,2.69,2.7h0v4.78a2.41,2.41,0,0,1-.76,1.87,2.77,2.77,0,0,1-1.93.7h-7q-6.3,0-9.93,3.68t-3.62,10h0v34.33a2.52,2.52,0,0,1-.81,1.93,2.85,2.85,0,0,1-2,.77Zm67.76,0h-8q-6.55,0-10.64-2.52a14.51,14.51,0,0,1-6-7.12,29.09,29.09,0,0,1-1.86-10.92h0V250.43h-9.12a2.62,2.62,0,0,1-2.68-2.7h0v-3.95a2.6,2.6,0,0,1,2.68-2.7h9.12v-19.5a2.6,2.6,0,0,1,2.69-2.69h5.48a2.62,2.62,0,0,1,2.7,2.69h0v19.5H1071a2.58,2.58,0,0,1,2,.76,2.75,2.75,0,0,1,.7,1.94h0v3.95a2.71,2.71,0,0,1-.7,1.93,2.55,2.55,0,0,1-2,.77h-14.47v30q0,5.51,1.86,8.65c1.25,2.11,3.46,3.16,6.65,3.16h7.13a2.64,2.64,0,0,1,1.93.75,2.61,2.61,0,0,1,.76,1.93h0v4.2a2.62,2.62,0,0,1-2.69,2.7Zm38.21,1.17h0q-12.15,0-19.28-7.42t-7.83-20.26h0q-.12-1.53-.12-3.93c0-1.59,0-2.89.12-3.91h0a34.14,34.14,0,0,1,3.86-14.54,24.21,24.21,0,0,1,9.28-9.64,27.31,27.31,0,0,1,13.85-3.39h0q8.88,0,14.9,3.74a23.85,23.85,0,0,1,9.16,10.64,38.4,38.4,0,0,1,3.15,16.11h0v2a2.56,2.56,0,0,1-.76,2,2.72,2.72,0,0,1-1.91.69h-40.44v1.06h0a24.93,24.93,0,0,0,2.11,8.94,16.51,16.51,0,0,0,5.44,6.71,13.89,13.89,0,0,0,8.35,2.57h0a17,17,0,0,0,7-1.28,18.25,18.25,0,0,0,4.55-2.86,14.67,14.67,0,0,0,2.33-2.51h0a6,6,0,0,1,1.64-1.71,4.51,4.51,0,0,1,1.87-.29h5.72a2.72,2.72,0,0,1,1.82.65,1.94,1.94,0,0,1,.63,1.82h0a8.9,8.9,0,0,1-1.86,4.25,23.05,23.05,0,0,1-5,5,26.7,26.7,0,0,1-7.93,4A33.79,33.79,0,0,1,1110.33,303Zm-16-36.33V267h32v-.34a21.61,21.61,0,0,0-1.93-9.35,14.94,14.94,0,0,0-14.18-8.87h0a15.13,15.13,0,0,0-8.6,2.38,15.47,15.47,0,0,0-5.42,6.49,22.21,22.21,0,0,0-1.88,9.35ZM1205.87,303h0a40.47,40.47,0,0,1-11.26-1.53,29.79,29.79,0,0,1-9.47-4.54,22.44,22.44,0,0,1-6.59-7.73,25.17,25.17,0,0,1-2.69-11h0a2.58,2.58,0,0,1,.7-1.82,2.38,2.38,0,0,1,1.86-.76h6.31a2.76,2.76,0,0,1,2,.76,3.62,3.62,0,0,1,1,1.93h0a15.38,15.38,0,0,0,3,8.47,15,15,0,0,0,6.54,4.72,24.2,24.2,0,0,0,8.76,1.53h0q8.87,0,13.55-5.84t4.67-15.55h0V230.21h-41.47a2.67,2.67,0,0,1-1.93-.74,2.64,2.64,0,0,1-.77-1.94h0v-4.78a2.63,2.63,0,0,1,2.7-2.7h50.34a2.63,2.63,0,0,1,2.81,2.81h0v49.07a35.45,35.45,0,0,1-3.62,16.46,25.67,25.67,0,0,1-10.28,10.81Q1215.46,303,1205.87,303Zm73.15,0h0q-8.89,0-14.85-3.4a22.8,22.8,0,0,1-9.1-9.39,32.22,32.22,0,0,1-3.51-13.73h0c-.08-1.33-.13-3-.13-5.09s0-3.71.13-5h0a31.45,31.45,0,0,1,3.56-13.78,23.34,23.34,0,0,1,9.16-9.35q6-3.39,14.74-3.39h0q8.76,0,14.71,3.39a23.36,23.36,0,0,1,9.17,9.35,31.73,31.73,0,0,1,3.57,13.78h0c.07,1.25.11,2.9.11,5s0,3.76-.11,5.09h0a32.51,32.51,0,0,1-3.51,13.73,22.94,22.94,0,0,1-9.11,9.39Q1287.9,303,1279,303Zm0-9h0q7.23,0,11.55-4.63t4.67-13.48h0c.09-1.17.13-2.65.13-4.45s0-3.27-.13-4.44h0q-.35-8.88-4.67-13.48T1279,248.9h0q-7.26,0-11.64,4.63T1262.77,267h0c-.07,1.17-.11,2.65-.11,4.44s0,3.28.11,4.45h0q.24,8.88,4.61,13.48T1279,294Zm68.33,7.82h-5a4.22,4.22,0,0,1-2.74-.81,6,6,0,0,1-1.57-2.11h0L1316.4,244.7a3.08,3.08,0,0,1-.25-1.17h0a2.39,2.39,0,0,1,2.45-2.45h5.62a2.67,2.67,0,0,1,2,.7,3.87,3.87,0,0,1,.94,1.28h0l17.75,46,17.76-46a4.39,4.39,0,0,1,.88-1.28,2.47,2.47,0,0,1,1.93-.7h5.71a2.46,2.46,0,0,1,1.71.7,2.29,2.29,0,0,1,.76,1.75h0a3.06,3.06,0,0,1-.24,1.17h0l-21.73,54.21a4.93,4.93,0,0,1-1.46,2.11,4.41,4.41,0,0,1-2.86.81Zm62.84,1.17h0q-12.15,0-19.27-7.42t-7.82-20.26h0q-.12-1.53-.12-3.93c0-1.59,0-2.89.12-3.91h0a34.27,34.27,0,0,1,3.84-14.54,24.19,24.19,0,0,1,9.3-9.64,27.27,27.27,0,0,1,13.84-3.39h0q8.88,0,14.89,3.74a23.75,23.75,0,0,1,9.17,10.64,38.24,38.24,0,0,1,3.16,16.11h0v2a2.56,2.56,0,0,1-.76,2,2.77,2.77,0,0,1-1.93.69H1394.2v1.06h0a24.3,24.3,0,0,0,2.09,8.94,16.57,16.57,0,0,0,5.43,6.71,14,14,0,0,0,8.36,2.57h0a17,17,0,0,0,7-1.28,18.14,18.14,0,0,0,4.56-2.86,14.26,14.26,0,0,0,2.33-2.51h0a6.18,6.18,0,0,1,1.64-1.71,4.51,4.51,0,0,1,1.87-.29h5.73a2.71,2.71,0,0,1,1.8.65,2,2,0,0,1,.65,1.82h0a9,9,0,0,1-1.87,4.25,23,23,0,0,1-5,5,27,27,0,0,1-7.95,4A33.85,33.85,0,0,1,1410.19,303Zm-16-36.33V267h32v-.34a21.76,21.76,0,0,0-1.93-9.35,15.69,15.69,0,0,0-5.55-6.49,15.36,15.36,0,0,0-8.65-2.38h0a15,15,0,0,0-8.58,2.38,15.37,15.37,0,0,0-5.44,6.49,22.36,22.36,0,0,0-1.86,9.35Zm65.64,35.16H1454a2.6,2.6,0,0,1-2.68-2.7h0V243.78a2.59,2.59,0,0,1,2.68-2.7h5.5a2.57,2.57,0,0,1,1.91.76,2.64,2.64,0,0,1,.77,1.94h0v5.12a23.8,23.8,0,0,1,7.66-6.47q4.61-2.52,11.86-2.52h0a23.75,23.75,0,0,1,12.89,3.33,21.1,21.1,0,0,1,8.07,9.23,32.26,32.26,0,0,1,2.74,13.73h0v32.93a2.62,2.62,0,0,1-2.68,2.7h-5.84a2.62,2.62,0,0,1-2.69-2.7h0V266.78q0-8.17-4-12.78t-11.68-4.63h0q-7.23,0-11.62,4.63t-4.38,12.78h0v32.35a2.62,2.62,0,0,1-2.69,2.7Z"/></svg>